<?xml version="1.0" standalone="no"?>
<!DOCTYPE svg PUBLIC "-//W3C//DTD SVG 20010904//EN"
 "http://www.w3.org/TR/2001/REC-SVG-20010904/DTD/svg10.dtd">
<svg version="1.0" xmlns="http://www.w3.org/2000/svg"
 width="2400.000000pt" height="2400.000000pt" viewBox="0 0 2400.000000 2400.000000"
 preserveAspectRatio="xMidYMid meet">
<g transform="translate(0.000000,2400.000000) scale(0.100000,-0.100000)"
fill="#000000" stroke="none">
<path d="M10503 12909 c-40 -5 -86 -15 -102 -24 -17 -8 -36 -15 -43 -15 -30 0
-155 -72 -234 -135 -109 -86 -240 -289 -259 -401 -4 -21 -13 -58 -21 -82 -18
-55 -17 -205 1 -257 8 -22 15 -48 15 -58 0 -24 46 -140 72 -182 82 -133 115
-173 196 -238 36 -29 75 -57 86 -64 52 -30 131 -66 160 -74 17 -4 49 -14 71
-23 62 -23 298 -22 373 3 31 10 70 22 87 26 16 3 35 11 41 16 6 5 37 23 69 40
178 95 314 274 379 501 30 103 43 222 26 233 -18 11 -749 12 -761 1 -5 -6 -9
-58 -9 -117 0 -157 -8 -152 203 -133 195 17 200 16 184 -47 -7 -29 -28 -59
-72 -103 -212 -215 -591 -158 -724 110 -13 27 -31 62 -39 78 -19 37 -29 217
-14 266 34 113 75 184 139 242 20 18 44 40 53 49 81 76 289 100 419 49 75 -30
129 -73 171 -139 l32 -48 176 -5 c181 -6 202 -4 202 16 -1 71 -224 350 -315
393 -16 8 -50 26 -75 40 -137 77 -298 104 -487 82z"/>
<path d="M14350 12910 c-47 -4 -98 -14 -115 -22 -16 -8 -45 -18 -64 -22 -19
-3 -39 -11 -46 -16 -6 -5 -38 -24 -71 -41 -57 -31 -92 -58 -164 -129 -45 -45
-110 -122 -110 -131 0 -4 -16 -35 -35 -68 -19 -34 -37 -78 -41 -99 -3 -20 -14
-48 -23 -62 -24 -38 -24 -341 2 -387 9 -18 17 -39 17 -48 0 -14 32 -84 78
-172 9 -17 40 -57 67 -88 28 -32 52 -60 55 -64 18 -23 115 -93 164 -120 33
-17 65 -36 71 -41 7 -5 27 -13 46 -16 19 -4 48 -14 64 -23 53 -28 339 -23 435
9 197 64 348 183 469 370 47 73 56 99 47 134 l-6 24 -172 -5 -173 -5 -30 -34
c-128 -149 -215 -196 -360 -196 -474 -2 -623 662 -201 895 140 78 360 50 476
-60 19 -18 38 -33 43 -33 4 0 7 -6 7 -14 0 -30 59 -79 88 -73 15 3 90 2 167
-3 203 -11 210 1 96 171 -120 180 -286 300 -496 359 -46 12 -190 18 -285 10z"/>
<path d="M7055 12904 c-10 -4 -11 -1541 -1 -1551 8 -8 879 -4 888 5 5 5 7 76
6 158 l-3 149 -280 0 -280 0 0 85 c1 47 2 322 4 611 2 290 1 532 -3 538 -7 11
-307 15 -331 5z"/>
<path d="M8424 12901 c-7 -8 -4 -1551 4 -1551 158 -5 877 1 884 8 4 4 7 76 6
158 l-3 149 -259 -3 c-143 -2 -270 -1 -283 3 -23 5 -23 7 -23 155 0 132 2 150
18 159 10 5 112 6 262 1 134 -5 252 -5 260 0 18 10 21 283 3 301 -13 13 -30
13 -286 0 -177 -9 -232 -9 -243 0 -12 10 -14 41 -12 158 l3 146 277 0 c152 0
279 3 283 6 8 9 10 297 2 306 -7 6 -886 10 -893 4z"/>
<path d="M12403 12902 c-12 -8 -53 -98 -53 -116 0 -7 -9 -29 -20 -51 -11 -21
-23 -54 -26 -72 -3 -18 -12 -37 -20 -44 -8 -6 -14 -19 -14 -28 0 -9 -9 -34
-20 -56 -11 -22 -20 -44 -20 -50 0 -6 -9 -28 -20 -50 -11 -22 -20 -44 -20 -50
0 -5 -12 -32 -25 -60 -14 -27 -25 -56 -25 -63 0 -6 -9 -29 -20 -49 -11 -21
-20 -42 -20 -48 0 -6 -9 -28 -20 -50 -11 -22 -20 -44 -20 -50 0 -6 -9 -28 -20
-50 -11 -22 -20 -44 -20 -50 0 -6 -9 -28 -20 -50 -11 -22 -20 -47 -20 -56 0
-9 -7 -22 -15 -29 -8 -7 -15 -20 -15 -29 0 -9 -11 -38 -25 -66 -13 -27 -25
-56 -25 -63 0 -7 -9 -31 -20 -53 -11 -21 -29 -57 -40 -78 -11 -22 -20 -45 -20
-51 0 -6 -9 -23 -19 -38 -23 -31 -34 -82 -23 -99 5 -9 53 -10 186 -5 l178 7
15 40 c8 22 20 63 27 91 8 28 18 59 23 70 6 10 14 37 18 59 4 22 12 43 18 47
7 4 141 8 299 8 323 0 309 3 324 -80 4 -19 12 -46 19 -60 7 -14 16 -43 19 -65
4 -21 16 -56 27 -77 l19 -38 130 -2 c251 -4 225 -8 228 30 2 20 -3 41 -11 50
-8 10 -29 51 -46 92 -18 41 -39 89 -46 105 -43 93 -65 145 -65 152 0 5 -9 26
-20 48 -11 22 -20 46 -20 55 0 9 -4 20 -9 25 -5 6 -26 53 -46 105 -20 52 -41
99 -46 105 -5 5 -9 16 -9 25 0 9 -9 33 -20 55 -11 22 -20 44 -20 50 0 6 -9 28
-20 50 -11 22 -20 44 -20 50 0 5 -12 33 -25 60 -14 28 -25 57 -25 66 0 8 -4
19 -9 25 -5 5 -30 63 -55 129 -26 66 -56 143 -66 170 -11 28 -20 55 -20 61 0
40 -25 48 -162 50 -74 1 -139 -1 -145 -4z m154 -437 c14 -10 26 -34 33 -73 7
-31 19 -69 26 -84 8 -15 14 -35 14 -45 0 -10 6 -30 14 -45 8 -15 17 -42 21
-60 4 -18 16 -49 26 -68 11 -19 19 -42 19 -50 0 -8 9 -28 20 -45 34 -51 20
-55 -192 -55 -214 0 -217 1 -181 74 12 22 30 67 42 99 11 31 29 81 39 110 33
89 62 191 62 213 0 39 24 52 57 29z"/>
<path d="M15540 12889 c0 -17 31 -68 65 -105 6 -6 21 -26 35 -44 14 -18 43
-57 65 -86 22 -29 47 -62 55 -74 8 -13 24 -35 36 -49 11 -14 37 -51 57 -81 85
-126 155 -224 187 -259 8 -10 26 -33 40 -52 l25 -34 0 -380 0 -379 163 1 c126
0 166 3 177 14 10 11 11 79 4 364 -7 314 -6 354 8 388 9 20 20 37 23 37 4 0
22 24 40 53 19 28 39 57 45 62 7 6 28 35 48 65 21 30 57 82 81 115 25 33 57
78 73 100 15 22 45 63 65 90 21 28 44 59 52 70 8 11 37 47 64 80 57 71 75 102
67 115 -7 11 -368 12 -398 1 -10 -4 -45 -52 -77 -106 -32 -55 -76 -129 -97
-164 -74 -124 -81 -137 -113 -198 -17 -35 -38 -63 -46 -63 -17 0 -64 44 -64
60 0 9 -38 77 -115 205 -11 18 -38 63 -60 100 -22 36 -47 79 -55 95 -41 77
-35 76 -253 78 -194 2 -197 2 -197 -19z"/>
<path d="M10980 10994 c-6 -14 -10 -37 -10 -52 0 -15 -6 -47 -14 -72 -7 -25
-17 -72 -21 -105 -4 -33 -11 -68 -17 -78 -5 -10 -15 -50 -23 -90 -8 -40 -21
-97 -29 -127 -19 -65 -20 -102 -4 -118 35 -35 98 12 98 72 0 17 6 63 14 101 8
39 20 96 26 127 6 31 17 62 25 68 16 13 13 18 55 -95 12 -33 30 -81 41 -107
10 -26 19 -53 19 -60 1 -7 9 -31 20 -53 11 -22 19 -45 20 -51 0 -24 50 -24 50
-1 1 7 9 30 20 52 11 22 19 48 20 58 0 10 9 35 20 57 11 22 20 44 20 51 0 6 7
25 15 42 8 18 20 49 27 70 25 74 51 39 69 -89 6 -43 15 -86 20 -96 5 -9 9 -32
9 -52 0 -67 24 -106 67 -106 48 0 52 60 14 185 -18 56 -28 98 -52 220 -5 28
-16 82 -24 120 -8 39 -18 88 -23 110 -16 82 -57 43 -97 -95 -7 -25 -25 -76
-40 -115 -14 -38 -30 -83 -34 -100 -5 -16 -16 -43 -25 -60 -9 -16 -16 -35 -16
-42 0 -25 -21 -23 -30 4 -6 15 -15 37 -20 48 -6 11 -15 34 -20 50 -5 17 -21
62 -36 100 -14 39 -32 90 -39 115 -36 123 -74 169 -95 114z"/>
<path d="M9901 10986 c-18 -21 -11 -607 7 -629 23 -28 266 -23 287 6 41 58 9
82 -109 82 l-91 0 0 265 c0 146 -4 271 -8 278 -11 17 -72 15 -86 -2z"/>
<path d="M10490 10987 c-20 -16 -19 -609 1 -633 25 -30 88 -6 90 34 6 146 -2
586 -12 598 -14 17 -58 18 -79 1z"/>
<path d="M11822 10988 c-16 -16 -17 -600 -2 -629 13 -23 62 -26 80 -4 14 16
18 614 5 635 -9 14 -69 12 -83 -2z"/>
<path d="M12198 10989 c-21 -12 -24 -62 -5 -77 7 -6 42 -12 77 -14 l65 -3 0
-265 c0 -283 1 -290 44 -290 54 0 56 10 56 294 l0 261 68 5 c71 5 87 15 87 57
0 12 -9 27 -19 33 -26 13 -350 13 -373 -1z"/>
<path d="M12890 10990 l-25 -6 -3 -300 c-2 -235 1 -304 11 -318 22 -30 347
-36 376 -7 25 25 28 66 5 75 -9 3 -78 6 -154 6 l-138 0 -4 78 c-7 117 -11 114
142 106 l128 -7 17 32 c16 31 15 34 -2 53 -17 19 -27 20 -141 16 -87 -4 -127
-2 -135 7 -10 9 -15 115 -8 168 1 4 66 7 146 7 132 0 145 2 155 19 18 35 12
61 -17 72 -28 10 -308 10 -353 -1z"/>
<path d="M13585 10983 c-20 -20 -18 -604 2 -624 17 -17 196 -12 258 8 73 24
132 70 183 143 l46 65 0 97 c1 75 -3 100 -15 115 -9 10 -20 29 -24 42 -11 36
-85 105 -147 136 -67 34 -275 47 -303 18z m295 -124 c120 -82 139 -232 44
-336 -44 -48 -146 -87 -212 -81 l-37 3 -3 215 c-1 118 0 221 3 229 11 28 150
8 205 -30z"/>
</g>
</svg>
