<?xml version="1.0" standalone="no"?>
<!DOCTYPE svg PUBLIC "-//W3C//DTD SVG 20010904//EN"
 "http://www.w3.org/TR/2001/REC-SVG-20010904/DTD/svg10.dtd">
<svg version="1.0" xmlns="http://www.w3.org/2000/svg"
 width="1647.000000pt" height="780.000000pt" viewBox="0 0 1647.000000 780.000000"
 preserveAspectRatio="xMidYMid meet">
<g transform="translate(0.000000,780.000000) scale(0.100000,-0.100000)"
fill="#000000" stroke="none">
<path d="M6235 5639 c-166 -18 -440 -129 -557 -225 -24 -20 -62 -52 -86 -72
-60 -49 -184 -197 -221 -263 -45 -80 -101 -198 -101 -212 0 -6 -6 -29 -14 -52
-51 -151 -50 -143 -50 -340 1 -193 8 -243 50 -343 8 -18 14 -40 14 -50 0 -19
82 -185 122 -247 83 -129 277 -313 389 -369 27 -14 68 -36 92 -50 49 -28 220
-83 322 -102 92 -18 264 -18 359 1 117 22 270 73 348 116 39 22 73 39 75 39
11 0 102 68 167 125 74 65 185 196 223 265 65 116 107 212 123 280 4 19 13 49
18 65 27 78 49 294 33 324 l-12 21 -552 -2 -552 -3 -3 -174 c-2 -119 1 -178 9
-187 9 -11 64 -14 280 -14 l269 0 0 -23 c0 -49 -82 -173 -157 -238 -124 -107
-233 -143 -438 -143 -123 0 -148 3 -205 24 -129 47 -246 134 -327 243 -41 56
-103 175 -103 198 0 9 -7 34 -16 55 -25 58 -24 299 0 374 116 351 399 551 721
509 104 -13 224 -54 287 -97 56 -39 127 -115 162 -175 l28 -47 267 2 266 3 -2
28 c-2 37 -54 144 -111 231 -201 311 -555 512 -927 529 -60 3 -146 1 -190 -4z"/>
<path d="M11918 5640 c-204 -23 -446 -127 -611 -263 -152 -125 -298 -332 -352
-497 -9 -30 -22 -66 -27 -80 -6 -14 -19 -65 -29 -114 -34 -160 -23 -393 26
-526 7 -19 21 -62 31 -95 10 -33 31 -82 46 -108 16 -26 28 -50 28 -53 0 -13
79 -127 132 -189 175 -205 425 -346 711 -401 115 -23 307 -14 447 20 313 76
580 273 746 551 43 72 97 202 89 214 -8 15 -519 15 -546 1 -10 -6 -19 -16 -19
-23 -1 -21 -83 -114 -143 -162 -75 -60 -210 -122 -295 -136 -39 -6 -102 -8
-151 -4 -286 23 -511 225 -592 529 -23 89 -26 255 -4 316 8 23 15 51 15 62 0
11 21 63 47 116 81 167 234 299 408 352 188 56 414 10 575 -116 56 -44 129
-128 143 -166 6 -17 29 -18 282 -18 317 0 295 -9 248 102 -112 262 -347 491
-617 603 -174 72 -403 105 -588 85z"/>
<path d="M1073 5602 c-11 -11 -13 -217 -13 -1123 0 -746 3 -1117 10 -1130 10
-18 28 -19 655 -19 627 0 645 1 655 19 15 29 13 403 -2 424 -12 15 -51 17
-408 19 l-394 3 -7 25 c-4 14 -7 418 -8 899 0 488 -4 878 -9 883 -5 5 -112 10
-237 11 -178 2 -231 -1 -242 -11z"/>
<path d="M3113 5602 c-11 -11 -13 -217 -13 -1123 0 -746 3 -1117 10 -1130 10
-18 28 -19 655 -19 627 0 645 1 655 19 13 26 13 396 0 422 -10 18 -25 19 -405
19 -304 0 -396 3 -402 13 -13 19 -16 388 -4 420 l11 27 373 0 c277 0 376 3
385 12 9 9 12 71 12 220 0 195 -1 208 -19 218 -13 6 -152 10 -385 10 -358 0
-366 0 -376 20 -7 14 -10 88 -8 216 2 160 6 196 18 204 9 6 176 10 402 10 373
0 388 1 398 19 12 23 14 400 2 419 -12 19 -1290 23 -1309 4z"/>
<path d="M13707 5612 c-29 -6 -19 -28 56 -134 40 -57 106 -150 147 -208 41
-58 103 -146 139 -197 67 -93 173 -242 358 -505 l103 -146 2 -544 3 -543 237
-3 c205 -2 238 0 252 14 14 14 16 75 16 553 l0 538 67 94 c37 52 92 129 122
171 31 42 99 138 151 213 52 74 122 173 155 220 63 88 149 209 253 358 57 81
74 117 55 117 -229 4 -568 -1 -576 -9 -5 -5 -42 -63 -83 -128 -67 -109 -169
-272 -204 -328 -49 -77 -136 -218 -145 -233 -5 -10 -20 -31 -32 -47 -21 -30
-22 -30 -37 -10 -9 11 -41 61 -72 110 -30 50 -90 145 -132 212 -42 67 -101
162 -131 210 -104 168 -142 223 -154 223 -82 3 -537 4 -550 2z"/>
<path d="M8981 5564 c-12 -26 -21 -51 -21 -56 0 -6 -6 -22 -14 -36 -8 -15 -22
-47 -31 -72 -10 -25 -23 -58 -30 -75 -8 -16 -28 -66 -45 -110 -17 -44 -38 -93
-45 -110 -14 -33 -61 -149 -107 -265 -16 -41 -36 -88 -43 -105 -12 -29 -45
-109 -104 -257 -16 -40 -50 -125 -76 -188 -26 -63 -60 -149 -77 -190 -16 -41
-36 -88 -43 -105 -12 -29 -38 -93 -105 -260 -17 -44 -38 -93 -45 -110 -7 -16
-27 -66 -45 -110 -17 -44 -38 -94 -47 -111 -8 -18 -13 -40 -11 -50 3 -18 19
-19 257 -22 158 -1 258 1 265 8 10 10 18 32 61 155 13 39 33 95 45 125 12 30
25 70 30 88 4 18 15 44 24 57 l16 25 424 0 c354 0 425 -2 435 -14 14 -16 50
-108 58 -146 3 -14 10 -30 15 -37 6 -7 14 -27 18 -45 5 -18 18 -58 30 -88 12
-30 26 -70 31 -87 6 -21 18 -35 32 -38 12 -3 130 -4 262 -3 224 3 240 4 243
21 3 16 -20 79 -73 202 -7 17 -27 65 -44 108 -17 42 -45 112 -62 155 -17 42
-37 91 -44 107 -7 17 -28 66 -45 110 -17 44 -37 94 -45 110 -7 17 -20 50 -30
75 -10 25 -23 59 -30 75 -13 29 -45 109 -107 265 -16 41 -36 89 -43 105 -7 17
-27 65 -44 108 -17 42 -45 112 -62 155 -17 42 -37 91 -44 107 -7 17 -27 64
-43 105 -48 122 -93 233 -110 270 -18 43 -34 80 -60 145 l-21 50 -215 3 -215
2 -20 -46z m273 -654 c15 -41 31 -88 36 -105 5 -16 18 -55 30 -85 12 -30 25
-68 30 -85 5 -16 18 -55 30 -85 12 -30 25 -68 30 -85 5 -16 18 -55 30 -85 54
-141 59 -164 37 -173 -7 -3 -129 -5 -270 -6 -297 -2 -284 -7 -248 93 12 33 26
75 31 91 5 17 25 75 45 130 20 55 47 132 60 170 13 39 34 95 45 125 12 30 25
69 30 85 14 54 41 108 49 99 5 -5 20 -43 35 -84z"/>
<path d="M6926 2788 c-2 -7 -11 -49 -21 -93 -33 -157 -43 -201 -55 -250 -7
-27 -16 -70 -20 -95 -8 -48 -23 -114 -46 -196 -8 -28 -14 -62 -14 -77 0 -14
-5 -38 -11 -54 -6 -15 -15 -52 -20 -82 -10 -63 -1 -81 40 -81 32 0 51 16 51
45 0 21 23 128 46 211 8 28 14 62 14 76 0 14 7 45 15 68 8 23 15 54 15 69 0
39 35 147 46 141 8 -4 32 -62 89 -210 7 -19 27 -71 45 -115 18 -44 38 -96 45
-115 34 -93 81 -192 90 -189 8 4 29 52 90 209 21 56 55 143 64 165 8 19 20 49
57 148 24 62 48 105 59 106 6 1 13 -18 16 -41 3 -24 12 -65 18 -93 13 -51 26
-109 56 -250 10 -44 25 -111 35 -150 l17 -70 39 0 c57 0 56 5 -1 245 -7 30
-21 91 -30 135 -9 44 -21 98 -27 120 -6 22 -14 60 -18 85 -4 25 -13 68 -19 95
-30 123 -34 143 -41 187 -3 26 -10 51 -14 55 -9 9 -46 -33 -46 -53 0 -7 -6
-28 -14 -46 -8 -18 -21 -51 -29 -73 -31 -84 -49 -131 -62 -160 -14 -33 -39
-98 -61 -157 -30 -82 -47 -124 -60 -156 -8 -18 -14 -39 -14 -47 0 -7 -4 -17
-10 -20 -12 -7 -35 43 -96 208 -8 20 -21 56 -30 80 -8 23 -22 55 -30 70 -8 16
-14 35 -14 42 0 7 -6 26 -14 42 -8 15 -22 47 -30 71 -75 202 -91 233 -100 200z"/>
<path d="M5322 2758 c-19 -19 -17 -871 2 -887 9 -8 72 -11 202 -9 l189 3 3 39
c2 23 -2 42 -9 47 -7 4 -71 6 -143 4 -107 -2 -134 0 -148 13 -17 14 -18 46
-18 397 0 401 0 405 -45 405 -12 0 -26 -5 -33 -12z"/>
<path d="M6198 2759 c-17 -9 -18 -41 -18 -442 0 -324 3 -436 12 -445 15 -15
51 -15 66 0 17 17 17 869 0 886 -15 15 -37 15 -60 1z"/>
<path d="M8172 2758 c-17 -17 -17 -869 0 -886 7 -7 21 -12 33 -12 45 0 45 1
45 455 0 454 0 455 -45 455 -12 0 -26 -5 -33 -12z"/>
<path d="M8724 2756 c-3 -8 -4 -27 -2 -43 l3 -28 92 -1 c50 -1 96 -5 102 -8 8
-5 11 -125 11 -394 0 -213 4 -392 8 -399 10 -17 54 -25 72 -13 13 8 16 68 20
407 l5 398 95 5 c105 6 120 11 120 44 0 44 -10 46 -272 46 -205 0 -250 -2
-254 -14z"/>
<path d="M9738 2759 c-17 -9 -18 -41 -18 -442 0 -324 3 -436 12 -445 9 -9 80
-12 260 -12 l248 0 10 26 c7 17 7 32 0 45 -10 18 -23 19 -213 19 -145 0 -206
3 -215 12 -8 8 -12 56 -12 148 0 92 4 140 12 148 9 9 68 12 204 12 162 0 195
3 208 16 19 18 20 28 6 55 -10 18 -23 19 -208 19 -141 0 -201 3 -210 12 -17
17 -17 268 1 291 10 15 39 17 217 19 l205 3 0 40 0 40 -245 2 c-154 2 -251 -1
-262 -8z"/>
<path d="M10788 2760 c-17 -10 -18 -42 -18 -444 0 -375 2 -435 15 -446 11 -9
53 -11 163 -8 124 4 158 9 220 31 220 77 346 308 288 529 -42 161 -150 275
-310 324 -64 20 -333 30 -358 14z m357 -111 c216 -81 301 -334 177 -526 -68
-105 -153 -150 -313 -166 -162 -16 -149 -47 -149 358 0 244 3 334 12 343 21
21 208 15 273 -9z"/>
</g>
</svg>
